<svg xmlns="http://www.w3.org/2000/svg" viewBox="0 0 300 200">
<rect x="58" y="66" width="72" height="68" fill="#93c5fd" fill-opacity="0.25"/>
<circle cx="100.0" cy="35.8" r="3.2" fill="#5b7aa8"/><circle cx="192.9" cy="21.3" r="3.2" fill="#5b7aa8"/><circle cx="27.8" cy="24.7" r="3.2" fill="#5b7aa8"/><circle cx="128.6" cy="160.1" r="3.2" fill="#5b7aa8"/><circle cx="43.2" cy="49.1" r="3.2" fill="#5b7aa8"/><circle cx="186.2" cy="182.4" r="3.2" fill="#5b7aa8"/><circle cx="285.3" cy="16.6" r="3.2" fill="#5b7aa8"/><circle cx="251.8" cy="61.3" r="3.2" fill="#5b7aa8"/><circle cx="49.0" cy="29.7" r="3.2" fill="#5b7aa8"/><circle cx="95.6" cy="158.2" r="3.2" fill="#5b7aa8"/><circle cx="163.6" cy="19.6" r="3.2" fill="#5b7aa8"/><circle cx="24.9" cy="45.9" r="3.2" fill="#5b7aa8"/><circle cx="233.6" cy="136.6" r="3.2" fill="#5b7aa8"/><circle cx="157.2" cy="169.0" r="3.2" fill="#5b7aa8"/><circle cx="215.2" cy="61.0" r="3.2" fill="#5b7aa8"/><circle cx="286.4" cy="29.7" r="3.2" fill="#5b7aa8"/><circle cx="126.7" cy="147.3" r="3.2" fill="#5b7aa8"/><circle cx="19.1" cy="131.0" r="3.2" fill="#5b7aa8"/><circle cx="256.6" cy="65.7" r="3.2" fill="#5b7aa8"/><circle cx="246.6" cy="181.8" r="3.2" fill="#5b7aa8"/><circle cx="25.2" cy="137.1" r="3.2" fill="#5b7aa8"/><circle cx="191.8" cy="190.7" r="3.2" fill="#5b7aa8"/><circle cx="241.4" cy="60.4" r="3.2" fill="#5b7aa8"/><circle cx="55.7" cy="29.5" r="3.2" fill="#5b7aa8"/><circle cx="24.7" cy="149.4" r="3.2" fill="#5b7aa8"/><circle cx="44.7" cy="53.6" r="3.2" fill="#5b7aa8"/><circle cx="119.0" cy="168.3" r="3.2" fill="#5b7aa8"/><circle cx="164.0" cy="170.5" r="3.2" fill="#5b7aa8"/><circle cx="240.7" cy="167.0" r="3.2" fill="#5b7aa8"/><circle cx="109.9" cy="170.7" r="3.2" fill="#5b7aa8"/><circle cx="280.0" cy="35.8" r="3.2" fill="#5b7aa8"/><circle cx="58.0" cy="50.7" r="3.2" fill="#5b7aa8"/><circle cx="175.3" cy="56.3" r="3.2" fill="#5b7aa8"/><circle cx="9.2" cy="85.1" r="3.2" fill="#5b7aa8"/><circle cx="278.7" cy="135.1" r="3.2" fill="#5b7aa8"/><circle cx="200.0" cy="17.9" r="3.2" fill="#5b7aa8"/><circle cx="263.5" cy="151.5" r="3.2" fill="#5b7aa8"/><circle cx="256.4" cy="154.8" r="3.2" fill="#5b7aa8"/><circle cx="25.7" cy="20.4" r="3.2" fill="#5b7aa8"/><circle cx="67.3" cy="37.9" r="3.2" fill="#5b7aa8"/><circle cx="104.6" cy="17.7" r="3.2" fill="#5b7aa8"/><circle cx="8.1" cy="35.8" r="3.2" fill="#5b7aa8"/><circle cx="15.2" cy="168.9" r="3.2" fill="#5b7aa8"/><circle cx="182.4" cy="35.3" r="3.2" fill="#5b7aa8"/><circle cx="111.4" cy="30.6" r="3.2" fill="#5b7aa8"/><circle cx="249.1" cy="190.7" r="3.2" fill="#5b7aa8"/><circle cx="92.0" cy="99.1" r="3.2" fill="#5b7aa8"/><circle cx="69.2" cy="77.7" r="3.2" fill="#5b7aa8"/><circle cx="84.6" cy="86.8" r="3.2" fill="#5b7aa8"/><circle cx="113.7" cy="81.0" r="3.2" fill="#5b7aa8"/><circle cx="65.4" cy="125.3" r="3.2" fill="#5b7aa8"/><circle cx="95.7" cy="80.2" r="3.2" fill="#5b7aa8"/><circle cx="96.6" cy="73.5" r="3.2" fill="#5b7aa8"/><circle cx="95.7" cy="126.8" r="3.2" fill="#5b7aa8"/><circle cx="115.8" cy="111.0" r="3.2" fill="#5b7aa8"/><circle cx="79.7" cy="92.5" r="3.2" fill="#5b7aa8"/><circle cx="74.0" cy="115.2" r="3.2" fill="#5b7aa8"/><circle cx="96.0" cy="115.6" r="3.2" fill="#5b7aa8"/><circle cx="83.8" cy="84.5" r="3.2" fill="#5b7aa8"/><circle cx="112.7" cy="127.2" r="3.2" fill="#5b7aa8"/><circle cx="115.2" cy="117.1" r="3.2" fill="#5b7aa8"/><circle cx="113.1" cy="113.4" r="3.2" fill="#5b7aa8"/><circle cx="77.6" cy="101.0" r="3.2" fill="#5b7aa8"/><circle cx="85.3" cy="73.6" r="3.2" fill="#5b7aa8"/><circle cx="65.7" cy="87.6" r="3.2" fill="#5b7aa8"/><circle cx="79.6" cy="110.8" r="3.2" fill="#5b7aa8"/><circle cx="121.4" cy="97.0" r="3.2" fill="#5b7aa8"/><circle cx="120.2" cy="127.3" r="3.2" fill="#5b7aa8"/>
<path d="M54 62h176v6H60v64h170v6H54z" fill="#94a3b8" stroke="#475569" stroke-width="1.5"/>
<rect x="130" y="68" width="10" height="64" fill="#94a3b8" stroke="#334155" stroke-width="2"/>
<rect x="140" y="96" width="78" height="8" rx="3" fill="#475569"/>
<rect x="218" y="80" width="9" height="40" rx="4" fill="#3b82f6"/>
<rect x="40" y="97" width="16" height="6" fill="#64748b"/>
<circle cx="30" cy="100" r="18" fill="#fff" stroke="#475569" stroke-width="4"/>
<path d="M30 100l10-6" stroke="#e11d48" stroke-width="2.5" stroke-linecap="round"/>
<circle cx="30" cy="100" r="2.5" fill="#334155"/>
<path d="M136 84h44M170 76l10 8-10 8" stroke="#e11d48" stroke-width="4" fill="none" stroke-linecap="round" stroke-linejoin="round"/>
</svg>
