<svg width="149" height="1175" viewBox="0 0 149 1175" fill="none" xmlns="http://www.w3.org/2000/svg">
<path d="M73.4024 79.1774C40.4024 77.6102 21.4023 107.387 21.4023 107.387L22.4024 582.244C22.4024 582.244 34.4023 612.021 74.4024 608.887C114.402 605.752 125.402 586.946 125.402 586.946L126.402 101.118C126.402 101.118 106.402 80.7446 73.4024 79.1774Z" fill="white"/>
<path d="M125.177 595.948C125.177 602.757 102.642 608.279 74.8431 608.279C47.0459 608.279 24.5098 602.757 24.5098 595.948C24.5098 589.138 47.0459 583.616 74.8431 583.616C102.642 583.616 125.177 589.138 125.177 595.948Z" stroke="#9C9B9B" stroke-width="10.582" stroke-linecap="round" stroke-linejoin="round"/>
<path d="M125.177 92.5279C125.177 99.3374 102.642 104.859 74.8431 104.859C47.0459 104.859 24.5098 99.3374 24.5098 92.5279C24.5098 85.7166 47.0459 80.1963 74.8431 80.1963C102.642 80.1963 125.177 85.7166 125.177 92.5279Z" stroke="#9C9B9B" stroke-width="10.582" stroke-linecap="round" stroke-linejoin="round"/>
<path d="M114.228 590.198C114.228 595.526 96.5945 599.847 74.8414 599.847C53.09 599.847 35.4551 595.526 35.4551 590.198C35.4551 584.868 53.09 580.549 74.8414 580.549C96.5945 580.549 114.228 584.868 114.228 590.198Z" fill="#EF3A50"/>
<path d="M74.0688 585.074V1011.782" stroke="#565655" stroke-width="7.05468" stroke-linecap="round" stroke-linejoin="round"/>
<path d="M144.609 1100.79C144.609 1139.75 113.027 1171.33 74.0688 1171.33C35.1094 1171.33 3.52734 1139.75 3.52734 1100.79C3.52734 1061.84 35.1094 1030.25 74.0688 1030.25C113.027 1030.25 144.609 1061.84 144.609 1100.79Z" fill="#EF3A50"/>
<path d="M144.609 1100.79C144.609 1139.75 113.027 1171.33 74.0688 1171.33C35.1094 1171.33 3.52734 1139.75 3.52734 1100.79C3.52734 1061.84 35.1094 1030.25 74.0688 1030.25C113.027 1030.25 144.609 1061.84 144.609 1100.79Z" stroke="#813A50" stroke-width="7.05468" stroke-miterlimit="10" stroke-linecap="round"/>
<path d="M89.4817 1031.73C89.4817 1023.05 82.4447 1016.02 73.7639 1016.02C65.0849 1016.02 58.0479 1023.05 58.0479 1031.73" stroke="#813A50" stroke-width="5.29101" stroke-miterlimit="10" stroke-linecap="round"/>
<path d="M74.755 1113.89H69.3669V1085.61H74.755V1102.04L83.1924 1094.09H89.7021L80.9931 1102.04L90.016 1113.89H83.8661L77.0442 1105.04L74.755 1107.15V1113.89Z" fill="white"/>
<path d="M100.475 1107.02C98.8592 1107.02 97.3777 1106.8 96.1202 1106.3C95.6264 1106.62 95.3125 1107.11 95.3125 1107.74C95.3125 1108.64 95.8963 1109.22 97.3777 1109.22H105.277C109.676 1109.22 111.921 1111.6 111.921 1114.79C111.921 1119.72 106.175 1121.79 100.025 1121.79C94.5488 1121.79 89.8804 1120.4 89.8804 1116.72C89.8804 1114.7 91.4977 1113.26 93.831 1112.95C92.0338 1112.36 91.092 1110.93 91.092 1109.31C91.092 1107.52 92.3495 1106.17 94.279 1105.4C92.5735 1104.24 91.5417 1102.49 91.5417 1100.33C91.5417 1096.11 95.2666 1093.55 100.475 1093.55C102.898 1093.55 105.141 1094.18 106.759 1095.31C107.88 1093.73 109.856 1092.48 112.011 1092.48V1096.79C110.933 1096.79 109.632 1096.97 108.598 1097.32C109.138 1098.18 109.45 1099.21 109.45 1100.33C109.45 1104.46 105.681 1107.02 100.475 1107.02ZM100.025 1118.51C103.976 1118.51 106.849 1117.61 106.849 1115.68C106.849 1114.38 105.771 1113.89 103.976 1113.89H97.3777C95.9403 1113.89 94.7728 1114.47 94.7728 1115.91C94.7728 1117.7 96.838 1118.51 100.025 1118.51ZM100.519 1096.83C98.4977 1096.83 97.1061 1098.04 97.1061 1100.33C97.1061 1102.62 98.4977 1103.83 100.519 1103.83C102.584 1103.83 103.976 1102.62 103.976 1100.33C103.976 1098.04 102.584 1096.83 100.519 1096.83Z" fill="white"/>
<path d="M74.0705 1013.31C66.5661 1013.31 60.4814 1019.39 60.4814 1026.9C60.4814 1034.4 66.5661 1040.48 74.0705 1040.48C81.5749 1040.48 87.6561 1034.4 87.6561 1026.9" stroke="#565655" stroke-width="7.05468" stroke-linecap="round" stroke-linejoin="round"/>
<path d="M84.2611 1020.04C81.4781 1017.54 77.2999 1016.27 73.2646 1016.27" stroke="#813A50" stroke-width="5.29101" stroke-miterlimit="10" stroke-linecap="round"/>
<path d="M114.228 590.198C114.228 595.526 96.5945 599.849 74.8414 599.849C53.09 599.849 35.4551 595.526 35.4551 590.198" fill="#EF3A50"/>
<path d="M77.5927 590.2C77.5927 590.579 76.2065 591.075 74.0707 591.075C71.7109 591.075 70.5469 590.579 70.5469 590.2C70.5469 589.821 72.1236 589.512 74.0707 589.512C76.0143 589.512 77.5927 589.821 77.5927 590.2Z" fill="#565655"/>
<path d="M111.702 590.198C111.702 595.526 95.1993 599.849 74.843 599.849C54.4867 599.849 37.9858 595.526 37.9858 590.198" stroke="#813A50" stroke-width="5.29101" stroke-miterlimit="10" stroke-linecap="round"/>
<path d="M19.293 1090.79C19.293 1060.54 43.8168 1036.02 74.0708 1036.02Z" fill="#EF3A50"/>
<path d="M19.293 1100.79C19.293 1070.54 43.8168 1046.02 74.0708 1046.02" stroke="white" stroke-width="7.05468" stroke-miterlimit="10" stroke-linecap="round"/>
<path d="M125.177 595.948C125.177 602.757 102.642 608.279 74.8431 608.279C47.0459 608.279 24.5098 602.757 24.5098 595.948" stroke="#1D1D1B" stroke-width="10.582" stroke-linecap="round" stroke-linejoin="round"/>
<path d="M125.175 92.5278V591.948" stroke="#1D1D1B" stroke-width="10.582" stroke-linecap="round" stroke-linejoin="round"/>
<path d="M83.881 45.3536L72.1561 52.0003C71.9363 52.1236 71.6678 52.1236 71.4507 51.995L70.2951 51.3145C70.0753 51.1859 70.0699 50.8724 70.2869 50.7385L79.7059 44.7937C80.007 44.6035 80.3462 44.4856 80.7015 44.4535C80.9403 44.432 81.1681 44.4213 81.3852 44.4213C82.1692 44.4213 82.9858 44.5633 83.8322 44.8446C84.0655 44.9223 84.0953 45.2358 83.881 45.3563V45.3536ZM66.5432 55.2044C66.3804 55.2982 66.2122 55.3866 66.0413 55.4723C65.062 55.9144 64.5737 56.4395 64.5737 57.0503C64.5737 57.1441 64.5818 57.2834 64.6008 57.4709L64.6144 57.7629C64.6469 58.1621 64.6659 58.3952 64.6659 58.4621C64.6659 59.3944 64.2698 60.2142 63.4804 60.9161C62.6801 61.6207 61.7523 61.9717 60.697 61.9717C59.9591 61.9717 59.3297 61.7332 58.8089 61.2591C58.2907 60.7849 58.0303 60.2035 58.0303 59.5177C58.0303 58.2291 59.0395 57.1467 61.0578 56.2734L63.7381 55.116C64.7419 54.6847 65.3305 54.2132 65.5015 53.7042L66.1037 53.3479C66.3262 53.2166 66.6056 53.2166 66.828 53.3479L67.7857 53.9239C68.0081 54.0578 68.0054 54.3793 67.7775 54.5079L66.5432 55.2018V55.2044ZM62.7045 56.844C62.3518 56.844 61.8934 56.9753 61.3264 57.2378L60.6943 57.5432C59.5685 58.1112 59.0069 58.7568 59.0069 59.4775C59.0069 59.9115 59.1724 60.2839 59.5033 60.5973C59.8343 60.9108 60.2277 61.0688 60.6807 61.0688C61.4457 61.0688 62.1429 60.7768 62.7805 60.1901C63.4153 59.6061 63.7327 58.9658 63.7327 58.2693C63.7327 57.3209 63.3881 56.844 62.7018 56.844H62.7045Z" fill="#DE006E"/>
<path d="M77.5273 32.6455V77.6455" stroke="black" stroke-width="2"/>
<path d="M83.8319 60.364C82.8607 60.6881 81.8814 60.8516 80.8939 60.8516H80.8858C80.4734 60.8516 80.0692 60.7283 79.7166 60.5113L65.8756 51.984C65.7345 51.8982 65.6532 51.7428 65.6532 51.5794C65.6532 51.1401 65.2055 50.6444 64.313 50.0952L60.2302 47.585C58.7625 46.6741 58.0273 45.849 58.0273 45.1096C58.0273 44.5389 58.2634 44.0701 58.7354 43.7004C59.2074 43.3307 59.8124 43.1458 60.5503 43.1458C62.0098 43.1458 63.4015 43.6924 64.7227 44.7854C66.0438 45.8704 66.6759 46.9902 66.6162 48.1422L66.5782 48.7664L66.5511 49.0852V49.2004C66.5511 49.905 66.9201 50.3926 67.658 50.6632L67.9401 50.765C68.1191 50.832 68.4501 51.0061 68.933 51.2874L83.8835 59.8523C84.0978 59.9755 84.0652 60.2863 83.8319 60.3667V60.364ZM63.9929 45.3855C62.9023 44.5121 61.7901 44.0755 60.6561 44.0755C60.1054 44.0755 59.693 44.1612 59.419 44.33C59.145 44.5014 59.0067 44.7559 59.0067 45.0962C59.0067 45.5141 59.457 46.0044 60.3604 46.567L63.3093 48.3753C63.9875 48.7718 64.4893 48.9701 64.8176 48.9701C65.3575 48.9701 65.6287 48.6646 65.6287 48.0538C65.6287 47.1456 65.0835 46.2562 63.9929 45.3828V45.3855ZM68.933 52C68.621 52 68.366 52.2519 68.366 52.56C68.366 52.868 68.621 53.1199 68.933 53.1199C69.245 53.1199 69.5 52.868 69.5 52.56C69.5 52.2519 69.245 52 68.933 52Z" fill="#DE006E"/>
<path d="M62.0371 18.3616C62.0371 27.0406 69.0724 34.0776 77.7532 34.0776C86.4322 34.0776 93.4692 27.0406 93.4692 18.3616C93.4692 9.68255 86.4322 2.64551 77.7532 2.64551C69.0724 2.64551 62.0371 9.68255 62.0371 18.3616Z" stroke="#F19100" stroke-width="5.29101" stroke-miterlimit="10" stroke-linecap="round"/>
<path d="M34.7273 204.965C34.7273 216.188 114.717 216.191 114.717 227.42C114.717 238.637 34.7273 238.637 34.7273 249.866C34.7273 261.089 114.717 261.089 114.717 272.312C114.717 283.535 34.7273 283.535 34.7273 294.758C34.7273 305.981 114.717 305.981 114.717 317.204C114.717 328.427 34.7273 328.424 34.7273 339.647C34.7273 350.876 114.717 350.879 114.717 362.108C114.717 373.331 34.7273 373.331 34.7273 384.554C34.7273 395.777 114.717 395.777 114.717 407C114.717 418.229 34.7273 418.229 34.7273 429.452C34.7273 440.681 114.717 440.681 114.717 451.904C114.717 463.127 34.7273 463.13 34.7273 474.358C34.7273 485.582 114.717 485.581 114.717 496.81C114.717 508.039 34.7273 508.039 34.7273 519.268C34.7273 530.497 114.717 530.5 114.717 541.729" stroke="#858585" stroke-width="7.05468" stroke-linecap="round" stroke-linejoin="round"/>
<path d="M34.7273 519.266C34.7273 530.495 114.717 530.498 114.717 541.727C114.717 546.666 99.2617 549.363 81.9496 551.934C73.9496 553.124 73.9496 560.81 73.9496 584.644" stroke="#565655" stroke-width="7.05468" stroke-linecap="round" stroke-linejoin="round"/>
<path d="M34.7273 474.357C34.7273 485.586 114.717 485.586 114.717 496.809" stroke="#565655" stroke-width="7.05468" stroke-linecap="round" stroke-linejoin="round"/>
<path d="M34.7273 115.16C34.7273 126.383 114.717 126.383 114.717 137.612C114.717 148.835 34.7273 148.835 34.7273 160.058C34.7273 171.281 114.717 171.281 114.717 182.509C114.717 193.732 34.7273 193.735 34.7273 204.964C34.7273 216.187 114.717 216.187 114.717 227.416C114.717 238.639 34.7273 238.639 34.7273 249.862C34.7273 261.091 114.717 261.091 114.717 272.32C114.717 283.543 34.7273 283.546 34.7273 294.774C34.7273 306.003 114.717 306.003 114.717 317.232" stroke="#858585" stroke-width="7.05468" stroke-linecap="round" stroke-linejoin="round"/>
<path d="M34.7273 429.452C34.7273 440.68 114.717 440.68 114.717 451.903" stroke="#565655" stroke-width="7.05468" stroke-linecap="round" stroke-linejoin="round"/>
<path d="M34.7273 384.555C34.7273 395.778 114.717 395.778 114.717 407.001" stroke="#565655" stroke-width="7.05468" stroke-linecap="round" stroke-linejoin="round"/>
<path d="M34.7273 339.65C34.7273 350.879 114.717 350.879 114.717 362.102" stroke="#565655" stroke-width="7.05468" stroke-linecap="round" stroke-linejoin="round"/>
<path d="M34.7273 294.754C34.7273 305.977 114.717 305.977 114.717 317.2" stroke="#565655" stroke-width="7.05468" stroke-linecap="round" stroke-linejoin="round"/>
<path d="M34.7273 249.866C34.7273 261.089 114.717 261.089 114.717 272.312" stroke="#565655" stroke-width="7.05468" stroke-linecap="round" stroke-linejoin="round"/>
<path d="M34.7273 204.958C34.7273 216.187 114.717 216.187 114.717 227.41" stroke="#565655" stroke-width="7.05468" stroke-linecap="round" stroke-linejoin="round"/>
<path d="M34.7273 160.057C34.7273 171.28 114.717 171.28 114.717 182.509" stroke="#565655" stroke-width="7.05468" stroke-linecap="round" stroke-linejoin="round"/>
<path d="M114.718 137.612C114.718 126.383 34.729 126.383 34.729 115.16C34.729 102.494 63.0218 81.6455 74.722 81.6455" stroke="#565655" stroke-width="7.05468" stroke-linecap="round" stroke-linejoin="round"/>
<path d="M24.5117 92.5279C24.5117 85.7166 47.0461 80.1963 74.8433 80.1963C102.642 80.1963 125.177 85.7166 125.177 92.5279" stroke="#1D1D1B" stroke-width="10.582" stroke-linecap="round" stroke-linejoin="round"/>
<path d="M64.9436 404.748C41.8942 403.62 24.5273 398.636 24.5273 392.657" stroke="#FF8158" stroke-width="3.52734" stroke-linecap="round" stroke-linejoin="round"/>
<path d="M64.7161 384.46C41.7796 383.31 24.5273 378.338 24.5273 372.378" stroke="#FF8158" stroke-width="3.52734" stroke-linecap="round" stroke-linejoin="round"/>
<path d="M64.7161 365.581C41.7796 364.431 24.5273 359.459 24.5273 353.5" stroke="#FF8158" stroke-width="3.52734" stroke-linecap="round" stroke-linejoin="round"/>
<path d="M64.7161 345.304C41.7796 344.154 24.5273 339.183 24.5273 333.223" stroke="#FF8158" stroke-width="3.52734" stroke-linecap="round" stroke-linejoin="round"/>
<path d="M64.9436 326.436C41.8942 325.308 24.5273 320.324 24.5273 314.345" stroke="#FF8158" stroke-width="3.52734" stroke-linecap="round" stroke-linejoin="round"/>
<path d="M64.7161 306.147C41.7796 304.997 24.5273 300.025 24.5273 294.066" stroke="#FF8158" stroke-width="3.52734" stroke-linecap="round" stroke-linejoin="round"/>
<path d="M64.7002 287.269C41.7637 286.119 24.5115 281.147 24.5115 275.188" stroke="#FF8158" stroke-width="3.52734" stroke-linecap="round" stroke-linejoin="round"/>
<path d="M64.1887 266.992C41.2522 265.842 24 260.87 24 254.911" stroke="#FF8158" stroke-width="3.52734" stroke-linecap="round" stroke-linejoin="round"/>
<path d="M64.7161 248.113C41.7796 246.963 24.5273 241.992 24.5273 236.032" stroke="#FF8158" stroke-width="3.52734" stroke-linecap="round" stroke-linejoin="round"/>
<path d="M64.7161 229.235C41.7796 228.086 24.5273 223.114 24.5273 217.154" stroke="#FF8158" stroke-width="3.52734" stroke-linecap="round" stroke-linejoin="round"/>
<path d="M64.7161 210.236C41.7796 209.087 24.5273 204.115 24.5273 198.155" stroke="#FF8158" stroke-width="3.52734" stroke-linecap="round" stroke-linejoin="round"/>
<path d="M64.9436 598.748C41.8942 597.62 24.5273 592.636 24.5273 586.657" stroke="#FF8158" stroke-width="3.52734" stroke-linecap="round" stroke-linejoin="round"/>
<path d="M64.7161 578.46C41.7796 577.31 24.5273 572.338 24.5273 566.378" stroke="#FF8158" stroke-width="3.52734" stroke-linecap="round" stroke-linejoin="round"/>
<path d="M64.7161 559.581C41.7796 558.431 24.5273 553.459 24.5273 547.5" stroke="#FF8158" stroke-width="3.52734" stroke-linecap="round" stroke-linejoin="round"/>
<path d="M64.7161 539.304C41.7796 538.154 24.5273 533.183 24.5273 527.223" stroke="#FF8158" stroke-width="3.52734" stroke-linecap="round" stroke-linejoin="round"/>
<path d="M64.9436 520.436C41.8942 519.308 24.5273 514.324 24.5273 508.345" stroke="#FF8158" stroke-width="3.52734" stroke-linecap="round" stroke-linejoin="round"/>
<path d="M64.7161 500.147C41.7796 498.997 24.5273 494.025 24.5273 488.066" stroke="#FF8158" stroke-width="3.52734" stroke-linecap="round" stroke-linejoin="round"/>
<path d="M64.7002 481.269C41.7637 480.119 24.5115 475.147 24.5115 469.188" stroke="#FF8158" stroke-width="3.52734" stroke-linecap="round" stroke-linejoin="round"/>
<path d="M64.1887 460.992C41.2522 459.842 24 454.87 24 448.911" stroke="#FF8158" stroke-width="3.52734" stroke-linecap="round" stroke-linejoin="round"/>
<path d="M64.7161 442.113C41.7796 440.963 24.5273 435.992 24.5273 430.032" stroke="#FF8158" stroke-width="3.52734" stroke-linecap="round" stroke-linejoin="round"/>
<path d="M64.7161 423.235C41.7796 422.086 24.5273 417.114 24.5273 411.154" stroke="#FF8158" stroke-width="3.52734" stroke-linecap="round" stroke-linejoin="round"/>
<path d="M24.5098 92.5278V596.948" stroke="#1D1D1B" stroke-width="10.582" stroke-linecap="round" stroke-linejoin="round"/>
<path d="M85.9433 225.906V233.646H84.5993V227.106H82.5593L82.8953 225.906H85.9433ZM99.1027 225.942V233.682H97.3987L93.9187 227.382L93.9067 227.394C93.9907 227.79 94.0387 228.21 94.0387 228.678V233.646H92.7427V225.906H94.5187L97.9267 232.158L97.9387 232.146C97.8547 231.75 97.8067 231.33 97.8067 230.862V225.942H99.1027Z" fill="#FF8158"/>
<path d="M87.7793 209.77C87.7793 210.982 87.5033 211.954 86.9633 212.686C86.4233 213.406 85.7153 213.766 84.8273 213.766C83.9513 213.766 83.2313 213.406 82.6913 212.686C82.1513 211.954 81.8873 210.982 81.8873 209.77C81.8873 208.558 82.1513 207.586 82.6913 206.866C83.2313 206.146 83.9393 205.786 84.8273 205.786C85.7153 205.786 86.4233 206.146 86.9633 206.878C87.5033 207.598 87.7793 208.558 87.7793 209.77ZM84.8273 206.986C83.8553 206.986 83.2073 208.006 83.2073 209.77C83.2073 211.534 83.8553 212.566 84.8273 212.566C85.8233 212.566 86.4593 211.546 86.4593 209.77C86.4593 208.006 85.8233 206.986 84.8273 206.986ZM99.1027 205.942V213.682H97.3987L93.9187 207.382L93.9067 207.394C93.9907 207.79 94.0387 208.21 94.0387 208.678V213.646H92.7427V205.906H94.5187L97.9267 212.158L97.9387 212.146C97.8547 211.75 97.8067 211.33 97.8067 210.862V205.942H99.1027Z" fill="#FF8158"/>
<path d="M87.5753 383.51C87.5753 384.194 87.2993 384.974 86.7593 385.838L84.9833 388.646H83.3393L85.1513 386.054L85.1393 386.042C84.9833 386.102 84.7793 386.138 84.5273 386.138C83.8193 386.138 83.1953 385.886 82.6673 385.382C82.1513 384.878 81.8873 384.254 81.8873 383.51C81.8873 382.754 82.1633 382.106 82.7153 381.566C83.2793 381.026 83.9513 380.762 84.7553 380.762C85.5593 380.762 86.2193 381.026 86.7593 381.566C87.2993 382.106 87.5753 382.754 87.5753 383.51ZM84.7313 385.01C85.1753 385.01 85.5473 384.866 85.8233 384.566C86.1113 384.266 86.2553 383.894 86.2553 383.474C86.2553 383.042 86.1113 382.67 85.8233 382.37C85.5353 382.07 85.1753 381.914 84.7313 381.914C84.2873 381.914 83.9273 382.07 83.6393 382.37C83.3513 382.67 83.2073 383.042 83.2073 383.474C83.2073 384.338 83.8553 385.01 84.7313 385.01ZM99.1027 380.942V388.682H97.3987L93.9187 382.382L93.9067 382.394C93.9907 382.79 94.0387 383.21 94.0387 383.678V388.646H92.7427V380.906H94.5187L97.9267 387.158L97.9387 387.146C97.8547 386.75 97.8067 386.33 97.8067 385.862V380.942H99.1027Z" fill="#FF8158"/>
<path d="M87.1673 302.906V304.046H83.8673L83.6393 305.894C83.9873 305.642 84.4193 305.522 84.9353 305.522C85.6673 305.522 86.2793 305.774 86.7713 306.266C87.2753 306.758 87.5273 307.382 87.5273 308.138C87.5273 308.87 87.2633 309.494 86.7353 310.022C86.2193 310.55 85.5833 310.814 84.8513 310.814C83.6273 310.814 82.7393 310.31 82.1753 309.302L83.1713 308.594C83.5193 309.278 84.0473 309.614 84.7553 309.614C85.5833 309.614 86.1953 309.038 86.1953 308.174C86.1953 307.31 85.5593 306.686 84.6353 306.686C84.0593 306.686 83.6153 306.902 83.2913 307.346L82.4033 306.77L82.8473 302.906H87.1673ZM99.1027 302.942V310.682H97.3987L93.9187 304.382L93.9067 304.394C93.9907 304.79 94.0387 305.21 94.0387 305.678V310.646H92.7427V302.906H94.5187L97.9267 309.158L97.9387 309.146C97.8547 308.75 97.8067 308.33 97.8067 307.862V302.942H99.1027Z" fill="#FF8158"/>
<path d="M85.9433 457.906V465.646H84.5993V459.106H82.5593L82.8953 457.906H85.9433ZM91.353 457.762C92.073 457.762 92.673 457.978 93.165 458.398C93.657 458.818 93.897 459.298 93.897 459.862C93.897 460.618 93.585 461.158 92.973 461.506C93.657 461.782 94.137 462.562 94.137 463.438C94.137 464.098 93.873 464.662 93.357 465.118C92.841 465.562 92.181 465.79 91.389 465.79C89.949 465.79 89.049 464.962 88.653 463.942L89.745 463.354C90.045 464.182 90.573 464.59 91.329 464.59C92.205 464.59 92.757 464.134 92.757 463.33C92.757 462.574 92.181 462.154 91.281 462.118H90.741V461.014C90.993 461.014 91.185 461.014 91.317 461.002C92.145 460.954 92.565 460.606 92.565 459.946C92.565 459.358 92.049 458.962 91.329 458.962C90.597 458.962 90.069 459.43 89.841 460.09L88.773 459.538C89.121 458.518 90.105 457.762 91.353 457.762ZM105.7 457.942V465.682H103.996L100.516 459.382L100.504 459.394C100.588 459.79 100.636 460.21 100.636 460.678V465.646H99.3403V457.906H101.116L104.524 464.158L104.536 464.146C104.452 463.75 104.404 463.33 104.404 462.862V457.942H105.7Z" fill="#FF8158"/>
<path d="M85.9433 536.906V544.646H84.5993V538.106H82.5593L82.8953 536.906H85.9433ZM93.921 536.906L94.017 537.998L91.053 544.706H89.541L92.589 538.106H89.025V536.906H93.921ZM105.583 536.942V544.682H103.879L100.399 538.382L100.387 538.394C100.471 538.79 100.519 539.21 100.519 539.678V544.646H99.2231V536.906H100.999L104.407 543.158L104.419 543.146C104.335 542.75 104.287 542.33 104.287 541.862V536.942H105.583Z" fill="#FF8158"/>
<path d="M84.7553 263.762C85.4753 263.762 86.0753 263.978 86.5673 264.398C87.0593 264.818 87.2993 265.298 87.2993 265.862C87.2993 266.618 86.9873 267.158 86.3753 267.506C87.0593 267.782 87.5393 268.562 87.5393 269.438C87.5393 270.098 87.2753 270.662 86.7593 271.118C86.2433 271.562 85.5833 271.79 84.7913 271.79C83.3513 271.79 82.4513 270.962 82.0553 269.942L83.1473 269.354C83.4473 270.182 83.9753 270.59 84.7313 270.59C85.6073 270.59 86.1593 270.134 86.1593 269.33C86.1593 268.574 85.5833 268.154 84.6833 268.118H84.1433V267.014C84.3953 267.014 84.5873 267.014 84.7193 267.002C85.5473 266.954 85.9673 266.606 85.9673 265.946C85.9673 265.358 85.4513 264.962 84.7313 264.962C83.9993 264.962 83.4713 265.43 83.2433 266.09L82.1753 265.538C82.5233 264.518 83.5073 263.762 84.7553 263.762ZM99.1027 263.942V271.682H97.3987L93.9187 265.382L93.9067 265.394C93.9907 265.79 94.0387 266.21 94.0387 266.678V271.646H92.7427V263.906H94.5187L97.9267 270.158L97.9387 270.146C97.8547 269.75 97.8067 269.33 97.8067 268.862V263.942H99.1027Z" fill="#FF8158"/>
<path d="M85.9433 418.906V426.646H84.5993V420.106H82.5593L82.8953 418.906H85.9433ZM92.541 418.906V426.646H91.197V420.106H89.157L89.493 418.906H92.541ZM105.7 418.942V426.682H103.996L100.516 420.382L100.504 420.394C100.588 420.79 100.636 421.21 100.636 421.678V426.646H99.3403V418.906H101.116L104.524 425.158L104.536 425.146C104.452 424.75 104.404 424.33 104.404 423.862V418.942H105.7Z" fill="#FF8158"/>
<path d="M87.3233 341.906L87.4193 342.998L84.4553 349.706H82.9433L85.9913 343.106H82.4273V341.906H87.3233ZM98.9855 341.942V349.682H97.2815L93.8015 343.382L93.7895 343.394C93.8735 343.79 93.9215 344.21 93.9215 344.678V349.646H92.6255V341.906H94.4015L97.8095 348.158L97.8215 348.146C97.7375 347.75 97.6895 347.33 97.6895 346.862V341.942H98.9855Z" fill="#FF8158"/>
<path d="M85.9433 496.906V504.646H84.5993V498.106H82.5593L82.8953 496.906H85.9433ZM93.765 496.906V498.046H90.465L90.237 499.894C90.585 499.642 91.017 499.522 91.533 499.522C92.265 499.522 92.877 499.774 93.369 500.266C93.873 500.758 94.125 501.382 94.125 502.138C94.125 502.87 93.861 503.494 93.333 504.022C92.817 504.55 92.181 504.814 91.449 504.814C90.225 504.814 89.337 504.31 88.773 503.302L89.769 502.594C90.117 503.278 90.645 503.614 91.353 503.614C92.181 503.614 92.793 503.038 92.793 502.174C92.793 501.31 92.157 500.686 91.233 500.686C90.657 500.686 90.213 500.902 89.889 501.346L89.001 500.77L89.445 496.906H93.765ZM105.7 496.942V504.682H103.996L100.516 498.382L100.504 498.394C100.588 498.79 100.636 499.21 100.636 499.678V504.646H99.3403V496.906H101.116L104.524 503.158L104.536 503.146C104.452 502.75 104.404 502.33 104.404 501.862V496.942H105.7Z" fill="#FF8158"/>
<path d="M85.9433 575.906V583.646H84.5993V577.106H82.5593L82.8953 575.906H85.9433ZM94.173 578.51C94.173 579.194 93.897 579.974 93.357 580.838L91.581 583.646H89.937L91.749 581.054L91.737 581.042C91.581 581.102 91.377 581.138 91.125 581.138C90.417 581.138 89.793 580.886 89.265 580.382C88.749 579.878 88.485 579.254 88.485 578.51C88.485 577.754 88.761 577.106 89.313 576.566C89.877 576.026 90.549 575.762 91.353 575.762C92.157 575.762 92.817 576.026 93.357 576.566C93.897 577.106 94.173 577.754 94.173 578.51ZM91.329 580.01C91.773 580.01 92.145 579.866 92.421 579.566C92.709 579.266 92.853 578.894 92.853 578.474C92.853 578.042 92.709 577.67 92.421 577.37C92.133 577.07 91.773 576.914 91.329 576.914C90.885 576.914 90.525 577.07 90.237 577.37C89.949 577.67 89.805 578.042 89.805 578.474C89.805 579.338 90.453 580.01 91.329 580.01ZM105.7 575.942V583.682H103.996L100.516 577.382L100.504 577.394C100.588 577.79 100.636 578.21 100.636 578.678V583.646H99.3403V575.906H101.116L104.524 582.158L104.536 582.146C104.452 581.75 104.404 581.33 104.404 580.862V575.942H105.7Z" fill="#FF8158"/>
<path d="M84.7433 244.762C85.4993 244.762 86.1353 244.978 86.6393 245.422C87.1433 245.866 87.3953 246.418 87.3953 247.078C87.3953 247.714 87.1553 248.314 86.6753 248.854C86.3633 249.214 86.0633 249.538 85.7633 249.814L83.9993 251.446H87.3593V252.646H82.2713L82.2353 251.47C83.4113 250.402 84.2153 249.646 84.6473 249.214C85.0433 248.818 85.3793 248.446 85.6553 248.086C85.9193 247.762 86.0393 247.402 86.0273 247.018C86.0153 246.43 85.5113 245.962 84.7073 245.962C83.9753 245.962 83.3993 246.418 83.2073 247.102L82.1273 246.562C82.4753 245.506 83.4953 244.762 84.7433 244.762ZM99.1027 244.942V252.682H97.3987L93.9187 246.382L93.9067 246.394C93.9907 246.79 94.0387 247.21 94.0387 247.678V252.646H92.7427V244.906H94.5187L97.9267 251.158L97.9387 251.146C97.8547 250.75 97.8067 250.33 97.8067 249.862V244.942H99.1027Z" fill="#FF8158"/>
<path d="M85.9433 399.906V407.646H84.5993V401.106H82.5593L82.8953 399.906H85.9433ZM94.377 403.77C94.377 404.982 94.101 405.954 93.561 406.686C93.021 407.406 92.313 407.766 91.425 407.766C90.549 407.766 89.829 407.406 89.289 406.686C88.749 405.954 88.485 404.982 88.485 403.77C88.485 402.558 88.749 401.586 89.289 400.866C89.829 400.146 90.537 399.786 91.425 399.786C92.313 399.786 93.021 400.146 93.561 400.878C94.101 401.598 94.377 402.558 94.377 403.77ZM91.425 400.986C90.453 400.986 89.805 402.006 89.805 403.77C89.805 405.534 90.453 406.566 91.425 406.566C92.421 406.566 93.057 405.546 93.057 403.77C93.057 402.006 92.421 400.986 91.425 400.986ZM105.7 399.942V407.682H103.996L100.516 401.382L100.504 401.394C100.588 401.79 100.636 402.21 100.636 402.678V407.646H99.3403V399.906H101.116L104.524 406.158L104.536 406.146C104.452 405.75 104.404 405.33 104.404 404.862V399.942H105.7Z" fill="#FF8158"/>
<path d="M86.3153 322.906L84.5033 325.498L84.5153 325.51C84.6713 325.45 84.8753 325.414 85.1273 325.414C85.8353 325.414 86.4593 325.666 86.9753 326.17C87.5033 326.674 87.7673 327.298 87.7673 328.042C87.7673 328.798 87.4913 329.446 86.9273 329.986C86.3753 330.526 85.7033 330.79 84.8993 330.79C84.0953 330.79 83.4233 330.526 82.8833 329.986C82.3433 329.446 82.0793 328.798 82.0793 328.042C82.0793 327.358 82.3553 326.578 82.8953 325.714L84.6713 322.906H86.3153ZM84.9233 326.542C84.4793 326.542 84.1073 326.698 83.8193 326.998C83.5433 327.298 83.3993 327.658 83.3993 328.078C83.3993 328.51 83.5433 328.882 83.8313 329.182C84.1193 329.482 84.4793 329.638 84.9233 329.638C85.3673 329.638 85.7273 329.482 86.0153 329.182C86.3033 328.882 86.4473 328.51 86.4473 328.078C86.4473 327.214 85.7993 326.542 84.9233 326.542ZM99.1027 322.942V330.682H97.3987L93.9187 324.382L93.9067 324.394C93.9907 324.79 94.0387 325.21 94.0387 325.678V330.646H92.7427V322.906H94.5187L97.9267 329.158L97.9387 329.146C97.8547 328.75 97.8067 328.33 97.8067 327.862V322.942H99.1027Z" fill="#FF8158"/>
<path d="M85.9433 477.906V485.646H84.5993V479.106H82.5593L82.8953 477.906H85.9433ZM93.129 477.87V482.514H94.209V483.714H93.129V485.646H91.809V483.714H88.497L88.425 482.478L91.257 477.87H93.129ZM91.809 478.974L89.697 482.514H91.809V478.974ZM105.7 477.942V485.682H103.996L100.516 479.382L100.504 479.394C100.588 479.79 100.636 480.21 100.636 480.678V485.646H99.3403V477.906H101.116L104.524 484.158L104.536 484.146C104.452 483.75 104.404 483.33 104.404 482.862V477.942H105.7Z" fill="#FF8158"/>
<path d="M85.9433 556.906V564.646H84.5993V558.106H82.5593L82.8953 556.906H85.9433ZM93.825 558.85C93.825 559.462 93.573 559.966 93.081 560.338C93.813 560.77 94.185 561.43 94.185 562.306C94.185 563.038 93.921 563.626 93.393 564.094C92.865 564.562 92.217 564.79 91.437 564.79C90.657 564.79 89.997 564.562 89.469 564.094C88.941 563.626 88.677 563.038 88.677 562.306C88.677 561.406 89.037 560.746 89.757 560.35C89.289 559.99 89.049 559.486 89.049 558.85C89.049 558.262 89.277 557.77 89.745 557.362C90.213 556.942 90.777 556.738 91.437 556.738C92.097 556.738 92.661 556.942 93.129 557.362C93.597 557.77 93.825 558.262 93.825 558.85ZM90.333 558.862C90.333 559.474 90.777 559.93 91.437 559.93C92.073 559.93 92.529 559.474 92.529 558.862C92.529 558.274 92.049 557.83 91.437 557.83C90.825 557.83 90.333 558.274 90.333 558.862ZM89.997 562.306C89.997 562.678 90.129 563.002 90.405 563.266C90.681 563.53 91.029 563.662 91.437 563.662C91.833 563.662 92.169 563.53 92.445 563.266C92.721 563.002 92.865 562.678 92.865 562.306C92.865 561.538 92.253 560.926 91.437 560.926C90.621 560.926 89.997 561.538 89.997 562.306ZM105.7 556.942V564.682H103.996L100.516 558.382L100.504 558.394C100.588 558.79 100.636 559.21 100.636 559.678V564.646H99.3403V556.906H101.116L104.524 563.158L104.536 563.146C104.452 562.75 104.404 562.33 104.404 561.862V556.942H105.7Z" fill="#FF8158"/>
<path d="M86.5313 282.87V287.514H87.6113V288.714H86.5313V290.646H85.2113V288.714H81.8993L81.8273 287.478L84.6593 282.87H86.5313ZM85.2113 283.974L83.0993 287.514H85.2113V283.974ZM99.1027 282.942V290.682H97.3987L93.9187 284.382L93.9067 284.394C93.9907 284.79 94.0387 285.21 94.0387 285.678V290.646H92.7427V282.906H94.5187L97.9267 289.158L97.9387 289.146C97.8547 288.75 97.8067 288.33 97.8067 287.862V282.942H99.1027Z" fill="#FF8158"/>
<path d="M85.9433 437.906V445.646H84.5993V439.106H82.5593L82.8953 437.906H85.9433ZM91.341 437.762C92.097 437.762 92.733 437.978 93.237 438.422C93.741 438.866 93.993 439.418 93.993 440.078C93.993 440.714 93.753 441.314 93.273 441.854C92.961 442.214 92.661 442.538 92.361 442.814L90.597 444.446H93.957V445.646H88.869L88.833 444.47C90.009 443.402 90.813 442.646 91.245 442.214C91.641 441.818 91.977 441.446 92.253 441.086C92.517 440.762 92.637 440.402 92.625 440.018C92.613 439.43 92.109 438.962 91.305 438.962C90.573 438.962 89.997 439.418 89.805 440.102L88.725 439.562C89.073 438.506 90.093 437.762 91.341 437.762ZM105.7 437.942V445.682H103.996L100.516 439.382L100.504 439.394C100.588 439.79 100.636 440.21 100.636 440.678V445.646H99.3403V437.906H101.116L104.524 444.158L104.536 444.146C104.452 443.75 104.404 443.33 104.404 442.862V437.942H105.7Z" fill="#FF8158"/>
<path d="M87.2273 363.85C87.2273 364.462 86.9753 364.966 86.4833 365.338C87.2153 365.77 87.5873 366.43 87.5873 367.306C87.5873 368.038 87.3233 368.626 86.7953 369.094C86.2673 369.562 85.6193 369.79 84.8393 369.79C84.0593 369.79 83.3993 369.562 82.8713 369.094C82.3433 368.626 82.0793 368.038 82.0793 367.306C82.0793 366.406 82.4393 365.746 83.1593 365.35C82.6913 364.99 82.4513 364.486 82.4513 363.85C82.4513 363.262 82.6793 362.77 83.1473 362.362C83.6153 361.942 84.1793 361.738 84.8393 361.738C85.4993 361.738 86.0633 361.942 86.5313 362.362C86.9993 362.77 87.2273 363.262 87.2273 363.85ZM83.7353 363.862C83.7353 364.474 84.1793 364.93 84.8393 364.93C85.4753 364.93 85.9313 364.474 85.9313 363.862C85.9313 363.274 85.4513 362.83 84.8393 362.83C84.2273 362.83 83.7353 363.274 83.7353 363.862ZM83.3993 367.306C83.3993 367.678 83.5313 368.002 83.8073 368.266C84.0833 368.53 84.4313 368.662 84.8393 368.662C85.2353 368.662 85.5713 368.53 85.8473 368.266C86.1233 368.002 86.2673 367.678 86.2673 367.306C86.2673 366.538 85.6553 365.926 84.8393 365.926C84.0233 365.926 83.3993 366.538 83.3993 367.306ZM99.1027 361.942V369.682H97.3987L93.9187 363.382L93.9067 363.394C93.9907 363.79 94.0387 364.21 94.0387 364.678V369.646H92.7427V361.906H94.5187L97.9267 368.158L97.9387 368.146C97.8547 367.75 97.8067 367.33 97.8067 366.862V361.942H99.1027Z" fill="#FF8158"/>
<path d="M85.9433 516.906V524.646H84.5993V518.106H82.5593L82.8953 516.906H85.9433ZM92.913 516.906L91.101 519.498L91.113 519.51C91.269 519.45 91.473 519.414 91.725 519.414C92.433 519.414 93.057 519.666 93.573 520.17C94.101 520.674 94.365 521.298 94.365 522.042C94.365 522.798 94.089 523.446 93.525 523.986C92.973 524.526 92.301 524.79 91.497 524.79C90.693 524.79 90.021 524.526 89.481 523.986C88.941 523.446 88.677 522.798 88.677 522.042C88.677 521.358 88.953 520.578 89.493 519.714L91.269 516.906H92.913ZM91.521 520.542C91.077 520.542 90.705 520.698 90.417 520.998C90.141 521.298 89.997 521.658 89.997 522.078C89.997 522.51 90.141 522.882 90.429 523.182C90.717 523.482 91.077 523.638 91.521 523.638C91.965 523.638 92.325 523.482 92.613 523.182C92.901 522.882 93.045 522.51 93.045 522.078C93.045 521.214 92.397 520.542 91.521 520.542ZM105.7 516.942V524.682H103.996L100.516 518.382L100.504 518.394C100.588 518.79 100.636 519.21 100.636 519.678V524.646H99.3403V516.906H101.116L104.524 523.158L104.536 523.146C104.452 522.75 104.404 522.33 104.404 521.862V516.942H105.7Z" fill="#FF8158"/>
<path d="M84.7433 591.762C85.4993 591.762 86.1353 591.978 86.6393 592.422C87.1433 592.866 87.3953 593.418 87.3953 594.078C87.3953 594.714 87.1553 595.314 86.6753 595.854C86.3633 596.214 86.0633 596.538 85.7633 596.814L83.9993 598.446H87.3593V599.646H82.2713L82.2353 598.47C83.4113 597.402 84.2153 596.646 84.6473 596.214C85.0433 595.818 85.3793 595.446 85.6553 595.086C85.9193 594.762 86.0393 594.402 86.0273 594.018C86.0153 593.43 85.5113 592.962 84.7073 592.962C83.9753 592.962 83.3993 593.418 83.2073 594.102L82.1273 593.562C82.4753 592.506 83.4953 591.762 84.7433 591.762ZM94.377 595.77C94.377 596.982 94.101 597.954 93.561 598.686C93.021 599.406 92.313 599.766 91.425 599.766C90.549 599.766 89.829 599.406 89.289 598.686C88.749 597.954 88.485 596.982 88.485 595.77C88.485 594.558 88.749 593.586 89.289 592.866C89.829 592.146 90.537 591.786 91.425 591.786C92.313 591.786 93.021 592.146 93.561 592.878C94.101 593.598 94.377 594.558 94.377 595.77ZM91.425 592.986C90.453 592.986 89.805 594.006 89.805 595.77C89.805 597.534 90.453 598.566 91.425 598.566C92.421 598.566 93.057 597.546 93.057 595.77C93.057 594.006 92.421 592.986 91.425 592.986ZM105.7 591.942V599.682H103.996L100.516 593.382L100.504 593.394C100.588 593.79 100.636 594.21 100.636 594.678V599.646H99.3403V591.906H101.116L104.524 598.158L104.536 598.146C104.452 597.75 104.404 597.33 104.404 596.862V591.942H105.7Z" fill="#FF8158"/>
<path d="M51.0513 1085.39C53.7603 1085.39 56.0393 1086.17 57.8453 1087.76C59.6513 1089.35 60.5543 1091.33 60.5543 1093.69C60.5543 1095.97 59.6943 1098.12 57.9743 1100.06C56.8563 1101.35 55.7813 1102.51 54.7063 1103.5L48.3853 1109.35H60.4253V1113.65H42.1933L42.0643 1109.43C46.2783 1105.6 49.1593 1102.9 50.7073 1101.35C52.1263 1099.93 53.3303 1098.6 54.3193 1097.31C55.2653 1096.14 55.6953 1094.85 55.6523 1093.48C55.6093 1091.37 53.8033 1089.69 50.9223 1089.69C48.2993 1089.69 46.2353 1091.33 45.5473 1093.78L41.6773 1091.84C42.9243 1088.06 46.5793 1085.39 51.0513 1085.39Z" fill="white"/>
</svg>
