<svg width="563" height="872" viewBox="0 0 563 872" fill="none" xmlns="http://www.w3.org/2000/svg">
<path d="M551.647 807.391C551.647 836.828 430.526 860.691 281.118 860.691C131.711 860.691 10.5898 836.828 10.5898 807.391C10.5898 777.955 131.711 754.092 281.118 754.092C430.526 754.092 551.647 777.955 551.647 807.391Z" fill="#565655"/>
<path d="M551.647 807.391C551.647 836.828 430.526 860.691 281.118 860.691C131.711 860.691 10.5898 836.828 10.5898 807.391C10.5898 777.955 131.711 754.092 281.118 754.092C430.526 754.092 551.647 777.955 551.647 807.391Z" stroke="#3B3B3A" stroke-width="21.18" stroke-linecap="round" stroke-linejoin="round"/>
<path d="M551.647 63.8932C551.647 93.3299 430.526 117.193 281.118 117.193C131.711 117.193 10.5898 93.3299 10.5898 63.8932C10.5898 34.4566 131.711 10.5938 281.118 10.5938C430.526 10.5938 551.647 34.4566 551.647 63.8932Z" fill="#565655"/>
<path d="M551.647 63.8932C551.647 93.3299 430.526 117.193 281.118 117.193C131.711 117.193 10.5898 93.3299 10.5898 63.8932C10.5898 34.4566 131.711 10.5938 281.118 10.5938C430.526 10.5938 551.647 34.4566 551.647 63.8932Z" stroke="#3B3B3A" stroke-width="21.18" stroke-linecap="round" stroke-linejoin="round"/>
<g opacity="0.6">
<path d="M551.647 63.8893C551.647 289.315 301.797 320.252 301.797 442.362C301.797 564.479 551.647 532.723 551.647 796.802V807.392C551.647 836.829 430.526 860.692 281.118 860.692C131.711 860.692 10.5898 836.829 10.5898 807.392V796.802C10.5898 532.723 260.44 564.479 260.44 442.362C260.44 320.252 10.5898 289.315 10.5898 63.8893C10.5898 34.4527 131.711 10.5898 281.118 10.5898C430.526 10.5898 551.647 34.4527 551.647 63.8893Z" fill="#ECECEC"/>
<path d="M551.647 63.8893C551.647 289.315 301.797 320.252 301.797 442.362C301.797 564.479 551.647 532.723 551.647 796.802V807.392C551.647 836.829 430.526 860.692 281.118 860.692C131.711 860.692 10.5898 836.829 10.5898 807.392V796.802C10.5898 532.723 260.44 564.479 260.44 442.362C260.44 320.252 10.5898 289.315 10.5898 63.8893C10.5898 34.4527 131.711 10.5898 281.118 10.5898C430.526 10.5898 551.647 34.4527 551.647 63.8893Z" stroke="#DADADA" stroke-width="21.18" stroke-linecap="round" stroke-linejoin="round"/>
</g>
<path d="M551.647 63.8932C551.647 93.3299 430.526 117.193 281.118 117.193C131.711 117.193 10.5898 93.3299 10.5898 63.8932C10.5898 34.4566 131.711 10.5938 281.118 10.5938C430.526 10.5938 551.647 34.4566 551.647 63.8932Z" fill="#565655"/>
<path d="M551.647 63.8932C551.647 93.3299 430.526 117.193 281.118 117.193C131.711 117.193 10.5898 93.3299 10.5898 63.8932C10.5898 34.4566 131.711 10.5938 281.118 10.5938C430.526 10.5938 551.647 34.4566 551.647 63.8932Z" stroke="#3B3B3A" stroke-width="21.18" stroke-linecap="round" stroke-linejoin="round"/>
<path d="M193.164 267.898L128.766 271.937C128.766 271.937 159.018 299.785 197.036 328.41C235.054 357.035 261.581 389.322 266.587 426.358C271.438 463.946 292.222 454.989 293.115 428.154C294.012 401.315 324.504 358.38 355.367 336.017C386.226 313.655 433.227 273.097 433.227 273.097L193.164 267.898Z" fill="#FF8157"/>
<path d="M435.516 267.897C435.516 284.661 366.535 298.251 281.441 298.251C196.35 298.251 127.367 284.661 127.367 267.897C127.367 251.133 196.35 237.543 281.441 237.543C366.535 237.543 435.516 251.133 435.516 267.897Z" fill="#EF3A50"/>
<path d="M280.891 442.223L281.703 806.053" stroke="#FF8157" stroke-width="10.59" stroke-miterlimit="10" stroke-linecap="round"/>
<path d="M20.582 807.392C83.0149 807.594 180.19 641.367 271.977 641.367C363.76 641.367 416.79 807.09 540.932 807.392C540.932 807.392 510.218 850.063 279.991 850.063C47.1382 850.063 20.582 807.392 20.582 807.392Z" fill="#FF8157"/>
</svg>
